<mxfile host="app.diagrams.net" modified="2023-08-29T01:50:05.907Z" agent="Mozilla/5.0 (Windows NT 10.0; Win64; x64) AppleWebKit/537.36 (KHTML, like Gecko) Chrome/116.0.0.0 Safari/537.36" etag="YTvMBadNCbHqnxZ00hhq" version="21.6.9" type="github">
  <diagram name="Page-1" id="74b105a0-9070-1c63-61bc-23e55f88626e">
    <mxGraphModel dx="1467" dy="743" grid="1" gridSize="10" guides="1" tooltips="1" connect="1" arrows="1" fold="1" page="1" pageScale="1.5" pageWidth="1169" pageHeight="826" background="none" math="0" shadow="0">
      <root>
        <mxCell id="0" style=";html=1;" />
        <mxCell id="1" style=";html=1;" parent="0" />
        <object label="Vertical Container" id="I15e-faz3z55aXCzLAU_-1">
          <mxCell style="swimlane;whiteSpace=wrap;html=1;fillColor=#dae8fc;strokeColor=#6c8ebf;swimlaneFillColor=none;gradientColor=none;startSize=90;" vertex="1" parent="1">
            <mxGeometry x="290" y="320" width="200" height="670" as="geometry" />
          </mxCell>
        </object>
        <mxCell id="I15e-faz3z55aXCzLAU_-2" value="Vertical Container" style="swimlane;whiteSpace=wrap;html=1;fillColor=#e1d5e7;strokeColor=#9673a6;" vertex="1" parent="1">
          <mxGeometry x="1120" y="320" width="280" height="420" as="geometry" />
        </mxCell>
        <mxCell id="I15e-faz3z55aXCzLAU_-3" value="Vertical Container" style="swimlane;whiteSpace=wrap;html=1;fillColor=#fff2cc;strokeColor=#d6b656;" vertex="1" parent="1">
          <mxGeometry x="770" y="790" width="630" height="200" as="geometry" />
        </mxCell>
        <mxCell id="I15e-faz3z55aXCzLAU_-4" value="Vertical Container" style="swimlane;whiteSpace=wrap;html=1;fillColor=#cfbbd3;strokeColor=#23445d;" vertex="1" parent="1">
          <mxGeometry x="1520" y="320" width="200" height="680" as="geometry" />
        </mxCell>
        <mxCell id="I15e-faz3z55aXCzLAU_-5" value="Vertical Container" style="swimlane;whiteSpace=wrap;html=1;fillColor=#f8cecc;strokeColor=#b85450;" vertex="1" parent="1">
          <mxGeometry x="770" y="320" width="280" height="420" as="geometry" />
        </mxCell>
        <mxCell id="I15e-faz3z55aXCzLAU_-6" value="Vertical Container" style="swimlane;whiteSpace=wrap;html=1;fillColor=#fff2cc;strokeColor=#d6b656;" vertex="1" parent="1">
          <mxGeometry x="600" y="320" width="80" height="670" as="geometry" />
        </mxCell>
      </root>
    </mxGraphModel>
  </diagram>
</mxfile>
